<svg xmlns="http://www.w3.org/2000/svg" viewBox="0 0 50.1 10.6"><title>logo-text</title><path d="M5.3,0.4h0Z" transform="translate(0 -0.4)" style="fill:#c0f3f8"/><path d="M9.5,5.6V5.7c0,0.1,0,.2,0,0.4s0,0.3,0,.5,0,0.3,0,.4A2.5,2.5,0,0,1,9,8.5L8.5,9,6.9,10.1l-1,.7h-1L1.4,8.4,0.4,7.6A0.8,0.8,0,0,1,0,7V5.7h0a0.6,0.6,0,0,0,.2.3L0.4,6.1,4.2,8.8,4.9,9.3,5.2,9.5H5.9L8.4,7.5a2.6,2.6,0,0,0,1-1.4V5.6Z" transform="translate(0 -0.4)" style="fill:#00d2bc"/><path d="M9.5,2.1V2.2c0,0.1,0,.2,0,0.4s0,0.3,0,.5,0,0.2,0,.4a2.5,2.5,0,0,1-1,2L7,6.6l-1.1.8h-1l-3-2.1-1.3-1H0.3A0.8,0.8,0,0,1,0,3.6V2.3h0V2.4L0.4,2.6,4,5.2,4.9,5.8,5.3,6H5.9L8.2,4.2l0.4-.3a2.6,2.6,0,0,0,.8-1.2V2.4h0S9.5,2.1,9.5,2.1Z" transform="translate(0 -0.4)" style="fill:#00d2bc"/><path d="M5.3,0.4H5.5A2.9,2.9,0,0,1,6.9.8L7.6,1.3a0.9,0.9,0,0,1,.3.5,0.9,0.9,0,0,1-.1.6V2.6H7.6L7.3,2.4,6.2,1.9H5.4a3.1,3.1,0,0,0-1.5.5l-0.5.3h0l-1-.7h0l0.8-.6,0.8-.5,1-.4H5.3Z" transform="translate(0 -0.4)" style="fill:#00a8c4"/><path d="M14.7,0.9L16,1l1.1,0.5L18,2.2l0.7,0.9a4.6,4.6,0,0,1,.5,3.6,4.7,4.7,0,0,1-.5,1.1L18,8.7l-0.9.7a4.7,4.7,0,0,1-2.3.6H13.2a0.7,0.7,0,0,1-.7-0.7s0,0,0,0V1.6A0.7,0.7,0,0,1,13.1.9h1.6Zm0,1.4H13.9V8.6h0.9L16,8.4l1-.7a3.1,3.1,0,0,0,.7-1,3.1,3.1,0,0,0,.2-1.3,3.1,3.1,0,0,0-.2-1.2A3.1,3.1,0,0,0,16,2.6l-1.2-.3h0Z" transform="translate(0 -0.4)" style="fill:#fff"/><path d="M22.1,9.3a0.7,0.7,0,0,1-.2.5l-0.5.2a0.7,0.7,0,0,1-.7-0.7s0,0,0,0V1.6A0.7,0.7,0,0,1,21.4.9h0l0.5,0.2a0.7,0.7,0,0,1,.2.5V9.3h0Z" transform="translate(0 -0.4)" style="fill:#fff"/><path d="M30.9,10l-0.5-.2a0.7,0.7,0,0,1-.2-0.5V1.6a0.7,0.7,0,0,1,.1-0.3V1.1L30.7,1H35l0.2,0.2V1.4a0.7,0.7,0,0,1,.1.3,0.7,0.7,0,0,1-.2.5l-0.5.2H31.6V4.8h2.5l0.4,0.4a0.7,0.7,0,0,1,.1.3,0.6,0.6,0,0,1-.2.5l-0.5.2H31.6V8.6h3.1l0.5,0.2a0.7,0.7,0,0,1,.2.5,0.7,0.7,0,0,1-.1.3V9.8H30.9Z" transform="translate(0 -0.4)" style="fill:#fff"/><path d="M40.5,2.3v7a0.7,0.7,0,0,1-.2.5l-0.5.2-0.5-.2a0.7,0.7,0,0,1-.2-0.5v-7H37.2l-0.5-.2a0.7,0.7,0,0,1-.2-0.5,0.7,0.7,0,0,1,.2-0.5l0.5-.2h5.2l0.5,0.2a0.7,0.7,0,0,1,.2.5,0.7,0.7,0,0,1-.1.3V2.1l-0.5.2H40.5Z" transform="translate(0 -0.4)" style="fill:#fff"/><path d="M45.8,5.8l-1-.5a2.4,2.4,0,0,1-.6-0.8,2.1,2.1,0,0,1-.2-1,2.3,2.3,0,0,1,.2-1.1,2.7,2.7,0,0,1,.7-0.8l1-.5,1.1-.2h0.8l0.8,0.3,0.6,0.4,0.5,0.6V2.4a0.6,0.6,0,0,1,0,.2V2.8h-1l-0.4-.3-0.4-.2H46.3l-0.5.2L45.5,3a1,1,0,0,0-.1.5,0.8,0.8,0,0,0,.2.5L46,4.4l0.7,0.2,0.8,0.2,1,0.3,0.9,0.5,0.6,0.7a2.1,2.1,0,0,1,.2,1,2.6,2.6,0,0,1-.2,1.1,2.7,2.7,0,0,1-.7.9l-1,.6-1.2.2h-1L45,9.6l-0.7-.6-0.5-.7V8.1a0.7,0.7,0,0,1,0-.3V7.6l0.2-.2h0.5l0.5,0.4a2.1,2.1,0,0,0,.8.7L47,8.7h0.6l0.5-.3L48.5,8a1.1,1.1,0,0,0,.1-0.6,0.9,0.9,0,0,0-.2-0.5l-0.4-.4-0.5-.2L47,6.1Z" transform="translate(0 -0.4)" style="fill:#fff"/><path d="M24.3,9.7a3.1,3.1,0,0,1-1-1h0.1l0.9-.5h0.4l0.4,0.4h0.6a1,1,0,0,0,.8-0.3,1.3,1.3,0,0,0,.3-0.9V2.6H25.2V1.1h3.1V7.2A3,3,0,0,1,27.8,9a2.6,2.6,0,0,1-1.3,1H25.6A2.5,2.5,0,0,1,24.3,9.7Z" transform="translate(0 -0.4)" style="fill:#fff"/></svg>
